<svg viewBox="0 0 30 30" xmlns="http://www.w3.org/2000/svg" fill-rule="evenodd" clip-rule="evenodd" stroke-linejoin="round" stroke-miterlimit="1.414"><path d="M29.449 29.455a1.892 1.892 0 0 1-2.674 0l-5.798-5.803a13.036 13.036 0 0 1-7.842 2.614C5.882 26.266.003 20.388.003 13.134S5.883 0 13.135 0c7.253 0 13.132 5.879 13.132 13.133 0 2.939-.98 5.653-2.616 7.841l5.798 5.804a1.892 1.892 0 0 1 0 2.676zM13.135 3.754c-5.18 0-9.38 4.202-9.38 9.38 0 5.177 4.2 9.38 9.38 9.38 5.18 0 9.38-4.203 9.38-9.38 0-5.178-4.2-9.38-9.38-9.38z" fill="#fff"/></svg>