<?xml version="1.0" encoding="UTF-8" standalone="no"?><!DOCTYPE svg PUBLIC "-//W3C//DTD SVG 1.1//EN" "http://www.w3.org/Graphics/SVG/1.1/DTD/svg11.dtd"><svg width="100%" height="100%" viewBox="0 0 75 299" version="1.1" xmlns="http://www.w3.org/2000/svg" xmlns:xlink="http://www.w3.org/1999/xlink" xml:space="preserve" xmlns:serif="http://www.serif.com/" style="fill-rule:evenodd;clip-rule:evenodd;stroke-linejoin:round;stroke-miterlimit:1.41421;"><path id="Plus-Icon" serif:id="Plus Icon" d="M63.398,72.621l-26.133,-26.132l-26.131,26.132c-2.548,2.547 -6.677,2.547 -9.224,0c-2.547,-2.547 -2.547,-6.676 0,-9.223l26.132,-26.132l-26.132,-26.133c-2.547,-2.546 -2.547,-6.676 0,-9.223c2.547,-2.547 6.677,-2.547 9.223,0l26.133,26.132l26.131,-26.131c2.548,-2.548 6.677,-2.548 9.224,-0.001c2.547,2.547 2.547,6.676 -0.001,9.224l-26.131,26.131l26.132,26.133c2.547,2.546 2.546,6.676 0,9.223c-2.547,2.546 -6.677,2.547 -9.223,0Z" style="fill:#999;"/><path id="Plus-Icon1" serif:id="Plus Icon" d="M63.398,147.152l-26.133,-26.132l-26.131,26.132c-2.548,2.547 -6.677,2.547 -9.224,0c-2.547,-2.547 -2.547,-6.676 0,-9.223l26.132,-26.132l-26.132,-26.133c-2.547,-2.546 -2.547,-6.676 0,-9.223c2.547,-2.546 6.677,-2.547 9.223,0l26.133,26.132l26.131,-26.131c2.548,-2.548 6.677,-2.548 9.224,-0.001c2.547,2.547 2.547,6.676 -0.001,9.224l-26.131,26.131l26.132,26.133c2.547,2.547 2.546,6.676 0,9.223c-2.547,2.546 -6.677,2.547 -9.223,0Z"/><path id="Plus-Icon2" serif:id="Plus Icon" d="M63.398,221.683l-26.133,-26.132l-26.131,26.132c-2.548,2.547 -6.677,2.547 -9.224,0c-2.547,-2.547 -2.547,-6.676 0,-9.223l26.132,-26.132l-26.132,-26.133c-2.547,-2.546 -2.547,-6.676 0,-9.223c2.547,-2.546 6.677,-2.547 9.223,0l26.133,26.133l26.131,-26.132c2.548,-2.548 6.677,-2.547 9.224,-0.001c2.547,2.547 2.547,6.676 -0.001,9.225l-26.131,26.131l26.132,26.132c2.547,2.547 2.546,6.676 0,9.223c-2.547,2.547 -6.677,2.547 -9.223,0Z" style="fill:#fff;"/><path id="Plus-Icon3" serif:id="Plus Icon" d="M63.398,296.214l-26.133,-26.132l-26.131,26.132c-2.548,2.547 -6.677,2.547 -9.224,0c-2.547,-2.547 -2.547,-6.676 0,-9.223l26.132,-26.132l-26.132,-26.132c-2.547,-2.547 -2.547,-6.677 0,-9.224c2.547,-2.546 6.677,-2.546 9.223,0l26.133,26.133l26.131,-26.131c2.548,-2.549 6.677,-2.548 9.224,-0.001c2.547,2.546 2.547,6.675 -0.001,9.224l-26.131,26.131l26.132,26.132c2.547,2.547 2.546,6.676 0,9.223c-2.547,2.547 -6.677,2.547 -9.223,0Z" style="fill:#002147;"/></svg>