<?xml version="1.0" encoding="UTF-8" standalone="no"?>
<!DOCTYPE svg PUBLIC "-//W3C//DTD SVG 1.1//EN" "http://www.w3.org/Graphics/SVG/1.1/DTD/svg11.dtd">
<svg width="100%" height="100%" viewBox="0 0 16 16" version="1.1" xmlns="http://www.w3.org/2000/svg" xmlns:xlink="http://www.w3.org/1999/xlink" xml:space="preserve" xmlns:serif="http://www.serif.com/" style="fill-rule:evenodd;clip-rule:evenodd;stroke-linejoin:round;stroke-miterlimit:1.41421;">
    <g transform="matrix(1,0,0,1,-392,0)">
        <g id="safari-pinned-tab" transform="matrix(0.175824,0,0,0.175824,308.308,-10.1978)">
            <rect x="476" y="58" width="91" height="91" style="fill:none;"/>
            <g transform="matrix(0.0418045,0,0,0.0418045,487.544,62.1198)">
                <path d="M950.649,1006.5L950.649,1717.06L1086.15,1717.06L1086.15,1942.2L568.115,1942.2L568.115,1717.06L703.615,1717.06L703.615,1006.5L407.422,1006.5L407.422,1482.52L527.5,1482.52L527.5,1717.06L37.5,1717.06L37.5,1482.52L155.519,1482.52L155.519,273.705L37.5,273.705L37.5,37.5L1272.4,37.5L1521.1,295.311L1521.1,736.217L1272.4,981.107L1465.07,1482.52L1587,1482.52L1587,1717.06L1272.4,1717.06L998.515,1006.5L950.649,1006.5ZM950.649,758.387L1154.5,758.387L1272.4,645.504L1272.4,386.024L1150.95,273.705L407.422,273.705L407.422,758.387L703.615,758.387L703.615,625.5L568.115,625.5L568.115,386.024L1086.15,386.024L1086.15,625.5L950.649,625.5L950.649,758.387Z"/>
            </g>
        </g>
    </g>
</svg>
