<?xml version="1.0" encoding="UTF-8" standalone="no"?>
<!DOCTYPE svg PUBLIC "-//W3C//DTD SVG 1.1//EN" "http://www.w3.org/Graphics/SVG/1.1/DTD/svg11.dtd">
<svg width="100%" height="100%" viewBox="0 0 30 30" version="1.1" xmlns="http://www.w3.org/2000/svg" xmlns:xlink="http://www.w3.org/1999/xlink" xml:space="preserve" xmlns:serif="http://www.serif.com/" style="fill-rule:evenodd;clip-rule:evenodd;stroke-linejoin:round;stroke-miterlimit:1.41421;">
    <path d="M29.449,29.455C28.715,30.188 27.509,30.188 26.775,29.455L20.977,23.652C18.716,25.351 15.963,26.268 13.135,26.266C5.882,26.266 0.003,20.388 0.003,13.134C0.003,5.88 5.883,0 13.135,0C20.388,0 26.267,5.879 26.267,13.133C26.267,16.072 25.287,18.786 23.651,20.974L29.449,26.778C29.804,27.133 30.003,27.614 30.003,28.116C30.003,28.618 29.804,29.099 29.449,29.454L29.449,29.455ZM13.135,3.754C7.955,3.754 3.755,7.956 3.755,13.134C3.755,18.311 7.955,22.514 13.135,22.514C18.315,22.514 22.515,18.311 22.515,13.134C22.515,7.956 18.315,3.754 13.135,3.754Z" style="fill:rgb(136,136,136);"/>
</svg>
