<svg viewBox="0 0 75 299" xmlns="http://www.w3.org/2000/svg" fill-rule="evenodd" clip-rule="evenodd" stroke-linejoin="round" stroke-miterlimit="1.414"><path d="M63.398 72.621L37.265 46.489 11.134 72.621a6.523 6.523 0 0 1-9.224-9.223l26.132-26.132L1.91 11.133a6.521 6.521 0 1 1 9.223-9.223l26.133 26.132L63.397 1.911a6.522 6.522 0 1 1 9.223 9.223L46.489 37.265l26.132 26.133a6.522 6.522 0 0 1-9.223 9.223z" fill="#999"/><path d="M63.398 147.152L37.265 121.02l-26.131 26.132a6.523 6.523 0 0 1-9.224-9.223l26.132-26.132L1.91 85.664a6.521 6.521 0 1 1 9.223-9.223l26.133 26.132 26.131-26.131a6.522 6.522 0 1 1 9.223 9.223l-26.131 26.131 26.132 26.133a6.522 6.522 0 0 1-9.223 9.223z"/><path d="M63.398 221.683l-26.133-26.132-26.131 26.132a6.523 6.523 0 0 1-9.224-9.223l26.132-26.132L1.91 160.195a6.521 6.521 0 1 1 9.223-9.223l26.133 26.133 26.131-26.132a6.523 6.523 0 1 1 9.223 9.224l-26.131 26.131 26.132 26.132a6.522 6.522 0 0 1-9.223 9.223z" fill="#fff"/><path d="M63.398 296.214l-26.133-26.132-26.131 26.132a6.523 6.523 0 0 1-9.224-9.223l26.132-26.132L1.91 234.727a6.523 6.523 0 0 1 9.223-9.224l26.133 26.133 26.131-26.131a6.522 6.522 0 0 1 9.223 9.223l-26.131 26.131 26.132 26.132a6.522 6.522 0 0 1-9.223 9.223z" fill="#002147"/></svg>