<svg viewBox="0 0 75 450" xmlns="http://www.w3.org/2000/svg" fill-rule="evenodd" clip-rule="evenodd" stroke-linejoin="round" stroke-miterlimit="2"><path d="M63.633 72.855L37.498 46.723 11.37 72.855l-9.225-9.223L28.277 37.5 2.143 11.367l9.223-9.223L37.5 28.277 63.631 2.144l9.224 9.223L46.722 37.5l26.132 26.133-9.223 9.223z" fill="#999"/><path d="M63.633 147.855l-26.134-26.132-26.13 26.132-9.225-9.222L28.277 112.5 2.143 86.367l9.223-9.223L37.5 103.276l26.131-26.13 9.224 9.222L46.722 112.5l26.132 26.132-9.223 9.223z"/><path d="M63.633 222.856l-26.134-26.132-26.13 26.132-9.225-9.223L28.277 187.5 2.143 161.368l9.223-9.223L37.5 178.277l26.131-26.131 9.224 9.224-26.132 26.13 26.132 26.133-9.223 9.222z" fill="#fff"/><path d="M63.633 297.856l-26.134-26.132-26.13 26.132-9.225-9.224L28.277 262.5 2.143 236.37l9.223-9.225L37.5 253.278l26.131-26.13 9.224 9.223-26.132 26.13 26.132 26.132-9.223 9.224z" fill="#002147"/><path d="M63.633 372.856l-26.134-26.132-26.13 26.132-9.225-9.224L28.277 337.5 2.143 311.37l9.223-9.225L37.5 328.277l26.131-26.13 9.224 9.223-26.132 26.13 26.132 26.133-9.223 9.223z" fill="#555"/><path d="M63.633 447.856l-26.134-26.132-26.13 26.132-9.225-9.223 26.133-26.132-26.133-26.132 9.223-9.224L37.5 403.278l26.131-26.131 9.224 9.223-26.132 26.131 26.132 26.132-9.223 9.223z" fill="#005eff"/></svg>