<?xml version="1.0" encoding="UTF-8" standalone="no"?>
<!DOCTYPE svg PUBLIC "-//W3C//DTD SVG 1.1//EN" "http://www.w3.org/Graphics/SVG/1.1/DTD/svg11.dtd">
<svg width="100%" height="100%" viewBox="0 0 589 30" version="1.1" xmlns="http://www.w3.org/2000/svg" xmlns:xlink="http://www.w3.org/1999/xlink" xml:space="preserve" style="fill-rule:evenodd;clip-rule:evenodd;stroke-linejoin:round;stroke-miterlimit:1.41421;">
    <g transform="matrix(1,0,0,1,-2940,-25.3301)">
        <g id="Logo" transform="matrix(1,0,0,1,-21.1989,5.88696)">
            <path d="M3300.79,39.351C3300.79,35.237 3303.51,29.92 3310.72,29.92C3316.71,29.92 3320.44,33.409 3320.44,38.918C3320.44,44.428 3316.59,48.783 3310.48,48.783C3303.58,48.783 3300.79,43.611 3300.79,39.351ZM3385.61,39.351C3385.61,35.237 3388.33,29.92 3395.54,29.92C3401.53,29.92 3405.26,33.409 3405.26,38.918C3405.26,44.428 3401.41,48.783 3395.3,48.783C3388.4,48.783 3385.61,43.611 3385.61,39.351ZM3034.18,30.888C3034.18,25.221 3034.18,24.177 3034.11,22.984C3034.04,21.717 3033.74,21.12 3032.51,20.86C3032.21,20.784 3031.58,20.748 3031.05,20.748C3030.64,20.748 3030.42,20.673 3030.42,20.412C3030.42,20.151 3030.68,20.077 3031.24,20.077C3033.22,20.077 3035.56,20.189 3036.68,20.189C3037.58,20.189 3039.93,20.077 3041.27,20.077C3041.83,20.077 3042.09,20.151 3042.09,20.412C3042.09,20.673 3041.87,20.748 3041.49,20.748C3041.08,20.748 3040.86,20.784 3040.41,20.86C3039.4,21.046 3039.11,21.68 3039.03,22.984C3038.96,24.177 3038.96,25.221 3038.96,30.888L3038.96,36.108C3038.96,41.513 3040.04,43.786 3041.87,45.28C3043.54,46.657 3045.26,46.807 3046.52,46.807C3048.16,46.807 3050.18,46.286 3051.67,44.795C3053.72,42.744 3053.83,39.389 3053.83,35.549L3053.83,30.888C3053.83,25.221 3053.83,24.177 3053.76,22.984C3053.68,21.717 3053.39,21.12 3052.15,20.86C3051.86,20.784 3051.22,20.748 3050.81,20.748C3050.4,20.748 3050.18,20.673 3050.18,20.412C3050.18,20.151 3050.44,20.077 3050.96,20.077C3052.86,20.077 3055.21,20.189 3055.25,20.189C3055.7,20.189 3058.04,20.077 3059.5,20.077C3060.02,20.077 3060.28,20.151 3060.28,20.412C3060.28,20.673 3060.06,20.748 3059.61,20.748C3059.2,20.748 3058.98,20.784 3058.53,20.86C3057.52,21.046 3057.22,21.68 3057.15,22.984C3057.08,24.177 3057.08,25.221 3057.08,30.888L3057.08,34.877C3057.08,39.015 3056.66,43.415 3053.53,46.098C3050.89,48.372 3048.2,48.783 3045.78,48.783C3043.8,48.783 3040.22,48.671 3037.5,46.21C3035.6,44.497 3034.18,41.738 3034.18,36.332L3034.18,30.888ZM3463.66,48.158C3463.28,47.989 3463.21,47.869 3463.21,47.339C3463.21,46.017 3463.3,44.573 3463.33,44.187C3463.35,43.827 3463.42,43.562 3463.62,43.562C3463.83,43.562 3463.86,43.778 3463.86,43.97C3463.86,44.284 3463.95,44.789 3464.07,45.198C3464.6,46.978 3466.02,47.628 3467.51,47.628C3469.68,47.628 3470.74,46.161 3470.74,44.886C3470.74,43.706 3470.38,42.6 3468.38,41.036L3467.27,40.17C3464.63,38.101 3463.71,36.417 3463.71,34.468C3463.71,31.821 3465.93,29.92 3469.27,29.92C3470.83,29.92 3471.85,30.16 3472.47,30.329C3472.69,30.377 3472.81,30.449 3472.81,30.618C3472.81,30.931 3472.71,31.629 3472.71,33.504C3472.71,34.035 3472.64,34.227 3472.45,34.227C3472.28,34.227 3472.2,34.082 3472.2,33.793C3472.2,33.578 3472.09,32.831 3471.58,32.206C3471.22,31.749 3470.52,31.027 3468.96,31.027C3467.18,31.027 3466.09,32.062 3466.09,33.504C3466.09,34.612 3466.65,35.454 3468.64,36.97L3469.32,37.476C3472.23,39.665 3473.26,41.325 3473.26,43.611C3473.26,45.006 3472.74,46.667 3471,47.797C3469.8,48.567 3468.45,48.783 3467.18,48.783C3465.78,48.783 3464.7,48.614 3463.66,48.158ZM3115.8,23.731C3114.94,21.68 3114.31,21.27 3112.97,20.896C3112.41,20.748 3111.81,20.748 3111.51,20.748C3111.18,20.748 3111.07,20.637 3111.07,20.412C3111.07,20.113 3111.48,20.077 3112.04,20.077C3114.01,20.077 3116.14,20.189 3117.44,20.189C3118.37,20.189 3120.16,20.077 3122.03,20.077C3122.47,20.077 3122.88,20.151 3122.88,20.412C3122.88,20.673 3122.66,20.748 3122.33,20.748C3121.73,20.748 3121.17,20.784 3120.87,21.008C3120.61,21.195 3120.5,21.455 3120.5,21.792C3120.5,22.276 3120.83,23.32 3121.36,24.663L3127.77,41.587L3127.92,41.587C3129.52,37.487 3134.37,25.482 3135.26,23.022C3135.45,22.537 3135.6,21.978 3135.6,21.642C3135.6,21.345 3135.45,21.046 3135.11,20.934C3134.66,20.784 3134.11,20.748 3133.62,20.748C3133.28,20.748 3132.99,20.711 3132.99,20.449C3132.99,20.151 3133.32,20.077 3134.03,20.077C3135.9,20.077 3137.46,20.189 3137.95,20.189C3138.58,20.189 3140.33,20.077 3141.45,20.077C3141.93,20.077 3142.23,20.151 3142.23,20.412C3142.23,20.673 3142.01,20.748 3141.64,20.748C3141.26,20.748 3140.48,20.748 3139.81,21.195C3139.33,21.531 3138.77,22.164 3137.76,24.551C3136.31,28.055 3135.3,30.068 3133.28,34.653C3130.9,40.097 3129.15,44.162 3128.33,46.024C3127.36,48.186 3127.14,48.783 3126.61,48.783C3126.13,48.783 3125.91,48.262 3125.2,46.509L3115.8,23.731ZM3005.71,37.387C3005.71,33.694 3005.71,33.014 3005.66,32.236C3005.62,31.411 3005.42,31.02 3004.62,30.852C3004.42,30.802 3004.01,30.777 3003.67,30.777C3003.4,30.777 3003.26,30.729 3003.26,30.559C3003.26,30.389 3003.43,30.341 3003.79,30.341C3004.45,30.341 3005.15,30.366 3005.76,30.366C3006.39,30.389 3006.95,30.414 3007.29,30.414C3008.07,30.414 3012.9,30.414 3013.37,30.389C3013.83,30.341 3014.22,30.293 3014.41,30.243C3014.53,30.219 3014.68,30.146 3014.8,30.146C3014.92,30.146 3014.95,30.243 3014.95,30.366C3014.95,30.536 3014.82,30.827 3014.75,31.945C3014.73,32.188 3014.68,33.257 3014.63,33.548C3014.61,33.67 3014.56,33.816 3014.39,33.816C3014.22,33.816 3014.17,33.694 3014.17,33.475C3014.17,33.305 3014.14,32.892 3014.02,32.601C3013.85,32.163 3013.61,31.872 3012.39,31.726C3011.98,31.677 3009.43,31.629 3008.94,31.629C3008.82,31.629 3008.77,31.702 3008.77,31.872L3008.77,38.018C3008.77,38.19 3008.8,38.286 3008.94,38.286C3009.48,38.286 3012.27,38.286 3012.83,38.238C3013.41,38.19 3013.78,38.116 3014,37.873C3014.17,37.679 3014.26,37.557 3014.39,37.557C3014.48,37.557 3014.56,37.606 3014.56,37.751C3014.56,37.898 3014.46,38.286 3014.36,39.525C3014.34,40.011 3014.26,40.984 3014.26,41.154C3014.26,41.347 3014.26,41.615 3014.05,41.615C3013.88,41.615 3013.83,41.518 3013.83,41.396C3013.8,41.154 3013.8,40.838 3013.73,40.521C3013.61,40.035 3013.27,39.671 3012.37,39.573C3011.91,39.525 3009.5,39.501 3008.92,39.501C3008.8,39.501 3008.77,39.598 3008.77,39.744L3008.77,41.663C3008.77,42.49 3008.75,44.725 3008.77,45.43C3008.82,47.106 3009.21,47.471 3011.69,47.471C3012.32,47.471 3013.34,47.471 3013.97,47.18C3014.61,46.887 3014.9,46.377 3015.07,45.381C3015.12,45.115 3015.16,45.017 3015.34,45.017C3015.53,45.017 3015.53,45.211 3015.53,45.454C3015.53,46.012 3015.34,47.665 3015.21,48.151C3015.04,48.783 3014.82,48.783 3013.9,48.783C3012.08,48.783 3010.74,48.735 3009.7,48.71C3008.65,48.66 3007.9,48.637 3007.17,48.637C3006.9,48.637 3006.37,48.637 3005.78,48.66C3005.23,48.66 3004.6,48.71 3004.11,48.71C3003.79,48.71 3003.62,48.637 3003.62,48.467C3003.62,48.345 3003.72,48.272 3004.01,48.272C3004.38,48.272 3004.67,48.224 3004.89,48.175C3005.37,48.078 3005.49,47.543 3005.59,46.839C3005.71,45.819 3005.71,43.898 3005.71,41.663L3005.71,37.387ZM3196.61,47.815C3196.01,47.553 3195.9,47.366 3195.9,46.547C3195.9,44.497 3196.05,42.259 3196.09,41.663C3196.13,41.104 3196.24,40.693 3196.54,40.693C3196.87,40.693 3196.91,41.029 3196.91,41.327C3196.91,41.812 3197.06,42.595 3197.24,43.229C3198.06,45.986 3200.26,46.994 3202.58,46.994C3205.93,46.994 3207.57,44.719 3207.57,42.744C3207.57,40.918 3207.01,39.202 3203.92,36.779L3202.2,35.436C3198.1,32.231 3196.68,29.62 3196.68,26.601C3196.68,22.5 3200.11,19.555 3205.3,19.555C3207.72,19.555 3209.28,19.927 3210.26,20.189C3210.59,20.263 3210.78,20.375 3210.78,20.637C3210.78,21.12 3210.63,22.202 3210.63,25.11C3210.63,25.931 3210.52,26.228 3210.22,26.228C3209.96,26.228 3209.85,26.004 3209.85,25.557C3209.85,25.221 3209.66,24.066 3208.88,23.096C3208.32,22.388 3207.24,21.27 3204.81,21.27C3202.06,21.27 3200.38,22.873 3200.38,25.11C3200.38,26.825 3201.23,28.129 3204.33,30.478L3205.37,31.261C3209.88,34.653 3211.49,37.226 3211.49,40.768C3211.49,42.93 3210.66,45.503 3207.98,47.254C3206.12,48.449 3204.03,48.783 3202.06,48.783C3199.89,48.783 3198.21,48.522 3196.61,47.815ZM3488.91,48.012C3489.12,48.007 3489.41,47.986 3489.58,47.966C3490.68,47.82 3491.14,47.003 3491.62,45.8L3497.66,30.69C3497.95,29.993 3498.1,29.728 3498.34,29.728C3498.55,29.728 3498.7,29.945 3498.94,30.498C3499.52,31.821 3503.37,41.637 3504.91,45.294C3505.82,47.46 3506.52,47.797 3507.02,47.917C3507.38,47.989 3507.74,48.013 3508.03,48.013C3508.11,48.013 3508.18,48.017 3508.23,48.033C3508.29,48.019 3508.36,48.013 3508.44,48.013C3508.76,48.013 3509.19,47.989 3509.53,47.894C3510.15,47.7 3510.25,47.003 3510.27,44.909L3510.49,30.666C3510.49,30.185 3510.56,29.848 3510.8,29.848C3511.07,29.848 3511.28,30.16 3511.69,30.594C3511.98,30.906 3515.64,34.828 3519.15,38.318C3520.79,39.953 3524.04,43.418 3524.44,43.803L3524.56,43.803L3524.32,33C3524.3,31.532 3524.08,31.075 3523.51,30.835C3523.14,30.69 3522.57,30.69 3522.23,30.69C3521.94,30.69 3521.85,30.618 3521.85,30.474C3521.85,30.281 3522.11,30.257 3522.47,30.257C3523.72,30.257 3524.88,30.329 3525.38,30.329C3525.65,30.329 3526.56,30.257 3527.74,30.257C3528.05,30.257 3528.29,30.281 3528.29,30.474C3528.29,30.618 3528.15,30.69 3527.86,30.69C3527.62,30.69 3527.43,30.69 3527.14,30.762C3526.46,30.954 3526.27,31.46 3526.25,32.807L3525.98,47.989C3525.98,48.519 3525.89,48.735 3525.67,48.735C3525.41,48.735 3525.12,48.47 3524.85,48.206C3523.34,46.762 3520.26,43.611 3517.76,41.132C3515.13,38.534 3512.46,35.526 3512.03,35.068L3511.96,35.068L3512.22,45.175C3512.27,47.051 3512.58,47.677 3513.06,47.845C3513.47,47.989 3513.93,48.013 3514.32,48.013C3514.58,48.013 3514.72,48.061 3514.72,48.206C3514.72,48.398 3514.51,48.446 3514.17,48.446C3512.61,48.446 3511.64,48.375 3511.19,48.375C3510.97,48.375 3509.84,48.446 3508.59,48.446C3508.41,48.446 3508.26,48.438 3508.16,48.389C3508,48.432 3507.72,48.446 3507.24,48.446C3506.37,48.446 3504.62,48.446 3502.69,48.398C3502.26,48.375 3501.97,48.375 3501.97,48.206C3501.97,48.061 3502.07,48.013 3502.31,47.989C3502.47,47.942 3502.64,47.725 3502.52,47.436L3500.6,42.336C3500.55,42.215 3500.48,42.167 3500.36,42.167L3494.99,42.167C3494.87,42.167 3494.82,42.215 3494.78,42.359L3493.48,45.8C3493.24,46.401 3493.12,46.978 3493.12,47.267C3493.12,47.7 3493.33,48.013 3494.08,48.013L3494.44,48.013C3494.73,48.013 3494.8,48.061 3494.8,48.206C3494.8,48.398 3494.66,48.446 3494.39,48.446C3493.62,48.446 3492.59,48.375 3491.84,48.375C3491.58,48.375 3490.25,48.446 3489,48.446C3488.83,48.446 3488.7,48.431 3488.63,48.383C3488.43,48.487 3488.08,48.519 3487.44,48.519C3485.7,48.519 3484.45,48.47 3483.37,48.446C3482.29,48.398 3481.42,48.375 3480.43,48.375C3480.17,48.375 3479.64,48.375 3479.06,48.398C3478.51,48.398 3477.89,48.446 3477.4,48.446C3477.09,48.446 3476.92,48.375 3476.92,48.206C3476.92,48.086 3477.02,48.013 3477.31,48.013C3477.67,48.013 3477.96,47.966 3478.17,47.917C3478.65,47.82 3478.78,47.292 3478.87,46.594C3478.99,45.584 3478.99,43.683 3478.99,41.469L3478.99,37.234C3478.99,33.578 3478.99,32.904 3478.94,32.134C3478.89,31.315 3478.7,30.931 3477.91,30.762C3477.72,30.714 3477.43,30.69 3477.11,30.69C3476.85,30.69 3476.71,30.643 3476.71,30.474C3476.71,30.304 3476.87,30.257 3477.24,30.257C3478.37,30.257 3479.88,30.329 3480.53,30.329C3481.11,30.329 3482.86,30.257 3483.8,30.257C3484.14,30.257 3484.31,30.304 3484.31,30.474C3484.31,30.643 3484.16,30.69 3483.88,30.69C3483.61,30.69 3483.23,30.714 3482.94,30.762C3482.29,30.882 3482.1,31.292 3482.05,32.134C3482,32.904 3482,33.578 3482,37.234L3482,41.469C3482,44.548 3482,46.209 3482.5,46.642C3482.91,47.003 3483.54,47.171 3485.41,47.171C3486.69,47.171 3487.63,47.147 3488.23,46.498C3488.52,46.184 3488.81,45.511 3488.86,45.053C3488.88,44.837 3488.93,44.693 3489.12,44.693C3489.29,44.693 3489.31,44.813 3489.31,45.102C3489.31,45.367 3489.14,47.171 3488.95,47.869C3488.94,47.92 3488.93,47.968 3488.91,48.012ZM2985.28,39.38C2985.2,39.38 2985.13,39.405 2985.13,39.525L2985.13,41.663C2985.13,43.898 2985.13,45.819 2985.25,46.864C2985.33,47.543 2985.47,48.078 2986.2,48.175C2986.54,48.224 2987.08,48.272 2987.44,48.272C2987.71,48.272 2987.83,48.345 2987.83,48.467C2987.83,48.637 2987.64,48.71 2987.34,48.71C2985.76,48.71 2984.23,48.637 2983.55,48.637C2982.99,48.637 2981.46,48.71 2980.49,48.71C2980.18,48.71 2980.01,48.637 2980.01,48.467C2980.01,48.345 2980.1,48.272 2980.39,48.272C2980.76,48.272 2981.05,48.224 2981.27,48.175C2981.76,48.078 2981.88,47.543 2981.97,46.839C2982.09,45.819 2982.09,43.898 2982.09,41.663L2982.09,37.387C2982.09,33.694 2982.09,33.014 2982.05,32.236C2982,31.411 2981.8,31.02 2981,30.852C2980.81,30.802 2980.39,30.777 2980.05,30.777C2979.79,30.777 2979.64,30.729 2979.64,30.559C2979.64,30.389 2979.81,30.341 2980.15,30.341C2981.46,30.341 2982.99,30.414 2983.65,30.414C2984.23,30.414 2985.76,30.341 2986.71,30.341C2987.05,30.341 2987.22,30.389 2987.22,30.559C2987.22,30.729 2987.08,30.777 2986.78,30.777C2986.59,30.777 2986.37,30.802 2986.08,30.852C2985.42,30.972 2985.23,31.386 2985.18,32.236C2985.13,33.014 2985.13,33.694 2985.13,37.387L2985.13,37.898C2985.13,38.018 2985.2,38.068 2985.28,38.068L2994.56,38.068C2994.63,38.068 2994.7,38.018 2994.7,37.898L2994.7,37.387C2994.7,33.694 2994.7,33.014 2994.66,32.236C2994.61,31.411 2994.41,31.02 2993.61,30.852C2993.42,30.802 2993,30.777 2992.66,30.777C2992.4,30.777 2992.25,30.729 2992.25,30.559C2992.25,30.389 2992.42,30.341 2992.76,30.341C2994.07,30.341 2995.6,30.414 2996.26,30.414C2996.84,30.414 2998.37,30.341 2999.32,30.341C2999.66,30.341 2999.83,30.389 2999.83,30.559C2999.83,30.729 2999.69,30.777 2999.39,30.777C2999.2,30.777 2998.98,30.802 2998.69,30.852C2998.03,30.972 2997.84,31.386 2997.79,32.236C2997.74,33.014 2997.74,33.694 2997.74,37.387L2997.74,41.663C2997.74,43.898 2997.74,45.819 2997.87,46.864C2997.94,47.543 2998.08,48.078 2998.81,48.175C2999.15,48.224 2999.69,48.272 3000.05,48.272C3000.32,48.272 3000.44,48.345 3000.44,48.467C3000.44,48.637 3000.24,48.71 2999.95,48.71C2998.37,48.71 2996.84,48.637 2996.16,48.637C2995.6,48.637 2994.07,48.71 2993.12,48.71C2992.79,48.71 2992.62,48.637 2992.62,48.467C2992.62,48.345 2992.71,48.272 2993,48.272C2993.37,48.272 2993.66,48.224 2993.88,48.175C2994.37,48.078 2994.49,47.543 2994.58,46.839C2994.7,45.819 2994.7,43.898 2994.7,41.663L2994.7,39.525C2994.7,39.428 2994.63,39.38 2994.56,39.38L2985.28,39.38ZM2968.07,31.702L2964.45,31.799C2963.05,31.847 2962.46,31.969 2962.1,32.503C2961.86,32.867 2961.73,33.159 2961.68,33.353C2961.64,33.548 2961.56,33.646 2961.42,33.646C2961.25,33.646 2961.2,33.523 2961.2,33.257C2961.2,32.867 2961.66,30.657 2961.71,30.462C2961.78,30.146 2961.86,30 2962,30C2962.19,30 2962.44,30.243 2963.05,30.293C2963.75,30.366 2964.67,30.414 2965.47,30.414L2975.1,30.414C2975.88,30.414 2976.41,30.341 2976.77,30.293C2977.14,30.219 2977.33,30.171 2977.43,30.171C2977.6,30.171 2977.62,30.317 2977.62,30.681C2977.62,31.191 2977.55,32.867 2977.55,33.5C2977.53,33.743 2977.48,33.888 2977.33,33.888C2977.14,33.888 2977.09,33.767 2977.07,33.402L2977.04,33.135C2976.99,32.503 2976.34,31.824 2974.17,31.774L2971.11,31.702L2971.11,41.663C2971.11,43.898 2971.11,45.819 2971.23,46.864C2971.31,47.543 2971.45,48.078 2972.18,48.175C2972.52,48.224 2973.06,48.272 2973.42,48.272C2973.69,48.272 2973.81,48.345 2973.81,48.467C2973.81,48.637 2973.62,48.71 2973.35,48.71C2971.74,48.71 2970.21,48.637 2969.53,48.637C2968.97,48.637 2967.44,48.71 2966.47,48.71C2966.16,48.71 2965.99,48.637 2965.99,48.467C2965.99,48.345 2966.08,48.272 2966.37,48.272C2966.74,48.272 2967.03,48.224 2967.25,48.175C2967.74,48.078 2967.88,47.543 2967.95,46.839C2968.07,45.819 2968.07,43.898 2968.07,41.663L2968.07,31.702ZM3068.75,27.532L3069.16,43.192C3069.24,46.098 3069.72,47.069 3070.47,47.329C3071.1,47.553 3071.81,47.59 3072.41,47.59C3072.82,47.59 3073.04,47.666 3073.04,47.888C3073.04,48.186 3072.71,48.262 3072.18,48.262C3069.76,48.262 3068.27,48.15 3067.56,48.15C3067.23,48.15 3065.47,48.262 3063.54,48.262C3063.05,48.262 3062.72,48.224 3062.72,47.888C3062.72,47.666 3062.94,47.59 3063.31,47.59C3063.8,47.59 3064.47,47.553 3064.99,47.404C3065.96,47.106 3066.11,46.024 3066.14,42.781L3066.48,20.711C3066.48,19.964 3066.59,19.443 3066.97,19.443C3067.38,19.443 3067.71,19.927 3068.35,20.598C3068.79,21.083 3074.46,27.161 3079.9,32.567C3082.44,35.1 3087.47,40.47 3088.1,41.066L3088.29,41.066L3087.92,24.326C3087.88,22.053 3087.54,21.345 3086.65,20.972C3086.09,20.748 3085.2,20.748 3084.67,20.748C3084.23,20.748 3084.08,20.637 3084.08,20.412C3084.08,20.113 3084.49,20.077 3085.05,20.077C3086.99,20.077 3088.77,20.189 3089.56,20.189C3089.97,20.189 3091.39,20.077 3093.21,20.077C3093.7,20.077 3094.07,20.113 3094.07,20.412C3094.07,20.637 3093.85,20.748 3093.4,20.748C3093.03,20.748 3092.73,20.748 3092.28,20.86C3091.24,21.158 3090.94,21.94 3090.9,24.029L3090.49,47.553C3090.49,48.372 3090.34,48.709 3090.01,48.709C3089.59,48.709 3089.15,48.299 3088.74,47.888C3086.39,45.652 3081.62,40.768 3077.74,36.927C3073.68,32.902 3069.54,28.242 3068.87,27.532L3068.75,27.532ZM3409.74,37.234C3409.74,33.578 3409.74,32.904 3409.69,32.134C3409.64,31.315 3409.45,30.931 3408.66,30.762C3408.47,30.714 3408.06,30.69 3407.72,30.69C3407.45,30.69 3407.31,30.643 3407.31,30.474C3407.31,30.304 3407.48,30.257 3407.84,30.257C3409.11,30.257 3410.63,30.329 3411.3,30.329C3412.05,30.329 3413.57,30.257 3415.01,30.257C3418.02,30.257 3422.03,30.257 3424.66,33C3425.86,34.251 3426.99,36.248 3426.99,39.111C3426.99,42.143 3425.72,44.453 3424.37,45.825C3423.26,46.955 3420.76,48.663 3416.31,48.663C3415.44,48.663 3414.45,48.591 3413.54,48.519C3412.63,48.446 3411.78,48.375 3411.18,48.375C3410.92,48.375 3410.39,48.375 3409.81,48.398C3409.26,48.398 3408.63,48.446 3408.15,48.446C3407.84,48.446 3407.67,48.375 3407.67,48.206C3407.67,48.086 3407.77,48.013 3408.06,48.013C3408.42,48.013 3408.7,47.966 3408.92,47.917C3409.4,47.82 3409.52,47.292 3409.62,46.594C3409.74,45.584 3409.74,43.683 3409.74,41.469L3409.74,37.234ZM3532.94,37.234C3532.94,33.578 3532.94,32.904 3532.89,32.134C3532.84,31.315 3532.65,30.931 3531.86,30.762C3531.66,30.714 3531.26,30.69 3530.92,30.69C3530.65,30.69 3530.51,30.643 3530.51,30.474C3530.51,30.304 3530.68,30.257 3531.04,30.257C3532.31,30.257 3533.83,30.329 3534.5,30.329C3535.25,30.329 3536.76,30.257 3538.21,30.257C3541.22,30.257 3545.23,30.257 3547.86,33C3549.06,34.251 3550.19,36.248 3550.19,39.111C3550.19,42.143 3548.92,44.453 3547.57,45.825C3546.46,46.955 3543.96,48.663 3539.51,48.663C3538.64,48.663 3537.66,48.591 3536.74,48.519C3535.83,48.446 3534.98,48.375 3534.38,48.375C3534.12,48.375 3533.59,48.375 3533.01,48.398C3532.46,48.398 3531.83,48.446 3531.35,48.446C3531.04,48.446 3530.87,48.375 3530.87,48.206C3530.87,48.086 3530.97,48.013 3531.26,48.013C3531.62,48.013 3531.91,47.966 3532.12,47.917C3532.6,47.82 3532.72,47.292 3532.82,46.594C3532.94,45.584 3532.94,43.683 3532.94,41.469L3532.94,37.234ZM3432.02,37.234C3432.02,33.578 3432.02,32.904 3431.97,32.134C3431.93,31.315 3431.73,30.931 3430.94,30.762C3430.75,30.714 3430.34,30.69 3430,30.69C3429.74,30.69 3429.59,30.643 3429.59,30.474C3429.59,30.304 3429.76,30.257 3430.12,30.257C3430.77,30.257 3431.47,30.281 3432.07,30.281C3432.7,30.304 3433.25,30.329 3433.59,30.329C3434.36,30.329 3439.14,30.329 3439.6,30.304C3440.06,30.257 3440.44,30.209 3440.64,30.16C3440.76,30.137 3440.9,30.064 3441.02,30.064C3441.14,30.064 3441.16,30.16 3441.16,30.281C3441.16,30.449 3441.04,30.738 3440.97,31.845C3440.95,32.085 3440.9,33.145 3440.85,33.432C3440.83,33.553 3440.78,33.698 3440.61,33.698C3440.44,33.698 3440.39,33.578 3440.39,33.36C3440.39,33.193 3440.37,32.784 3440.25,32.495C3440.08,32.062 3439.84,31.773 3438.64,31.629C3438.23,31.579 3435.7,31.532 3435.22,31.532C3435.1,31.532 3435.05,31.604 3435.05,31.773L3435.05,37.86C3435.05,38.028 3435.08,38.125 3435.22,38.125C3435.75,38.125 3438.52,38.125 3439.07,38.076C3439.65,38.028 3440.01,37.956 3440.23,37.715C3440.39,37.523 3440.49,37.403 3440.61,37.403C3440.71,37.403 3440.78,37.451 3440.78,37.595C3440.78,37.74 3440.68,38.125 3440.59,39.351C3440.56,39.834 3440.49,40.795 3440.49,40.964C3440.49,41.156 3440.49,41.42 3440.27,41.42C3440.11,41.42 3440.06,41.325 3440.06,41.204C3440.03,40.964 3440.03,40.651 3439.96,40.337C3439.84,39.857 3439.51,39.495 3438.62,39.4C3438.16,39.351 3435.78,39.328 3435.2,39.328C3435.08,39.328 3435.05,39.423 3435.05,39.568L3435.05,41.469C3435.05,42.287 3435.03,44.501 3435.05,45.198C3435.1,46.859 3435.49,47.219 3437.94,47.219C3438.57,47.219 3439.58,47.219 3440.2,46.931C3440.83,46.642 3441.12,46.136 3441.28,45.15C3441.33,44.886 3441.38,44.789 3441.55,44.789C3441.74,44.789 3441.74,44.981 3441.74,45.222C3441.74,45.776 3441.55,47.411 3441.43,47.894C3441.26,48.519 3441.04,48.519 3440.13,48.519C3438.33,48.519 3437,48.47 3435.97,48.446C3434.93,48.398 3434.19,48.375 3433.47,48.375C3433.2,48.375 3432.67,48.375 3432.09,48.398C3431.54,48.398 3430.91,48.446 3430.43,48.446C3430.12,48.446 3429.95,48.375 3429.95,48.206C3429.95,48.086 3430.05,48.013 3430.34,48.013C3430.7,48.013 3430.99,47.966 3431.2,47.917C3431.68,47.82 3431.81,47.292 3431.9,46.594C3432.02,45.584 3432.02,43.683 3432.02,41.469L3432.02,37.234ZM3363.76,48.446L3361.47,48.446C3360.12,48.446 3359.52,48.326 3358.89,47.989C3357.86,47.436 3356.95,46.305 3355.6,44.453C3354.64,43.129 3353.53,41.493 3353.22,41.132C3353.1,40.987 3352.95,40.964 3352.78,40.964L3350.69,40.915C3350.57,40.915 3350.5,40.964 3350.5,41.109L3350.5,41.445C3350.5,43.683 3350.5,45.584 3350.62,46.594C3350.69,47.292 3350.84,47.82 3351.56,47.917C3351.92,47.966 3352.45,48.013 3352.74,48.013C3352.93,48.013 3353.02,48.086 3353.02,48.206C3353.02,48.375 3352.86,48.446 3352.54,48.446C3351.15,48.446 3349.37,48.375 3349.01,48.375C3348.55,48.375 3347.03,48.446 3346.07,48.446C3345.76,48.446 3345.59,48.375 3345.59,48.206C3345.59,48.086 3345.69,48.013 3345.97,48.013C3346.34,48.013 3346.62,47.966 3346.84,47.917C3347.32,47.82 3347.44,47.292 3347.54,46.594C3347.66,45.584 3347.66,43.683 3347.66,41.469L3347.66,37.234C3347.66,33.578 3347.66,32.904 3347.61,32.134C3347.56,31.315 3347.37,30.931 3346.58,30.762C3346.38,30.714 3345.97,30.69 3345.64,30.69C3345.37,30.69 3345.23,30.643 3345.23,30.474C3345.23,30.304 3345.4,30.257 3345.76,30.257C3347.03,30.257 3348.55,30.329 3349.06,30.329C3349.87,30.329 3351.7,30.257 3352.45,30.257C3353.96,30.257 3355.58,30.401 3356.87,31.292C3357.55,31.749 3358.51,32.976 3358.51,34.587C3358.51,36.368 3357.76,38.004 3355.34,39.978C3357.48,42.672 3359.14,44.813 3360.56,46.305C3361.9,47.7 3362.89,47.869 3363.25,47.942C3363.51,47.989 3363.73,48.013 3363.92,48.013C3363.96,48.013 3363.99,48.015 3364.01,48.019C3364.05,48.015 3364.09,48.013 3364.14,48.013C3364.5,48.013 3364.79,47.966 3365.01,47.917C3365.49,47.82 3365.61,47.292 3365.71,46.594C3365.83,45.584 3365.83,43.683 3365.83,41.469L3365.83,37.234C3365.83,33.578 3365.83,32.904 3365.78,32.134C3365.73,31.315 3365.54,30.931 3364.74,30.762C3364.55,30.714 3364.14,30.69 3363.81,30.69C3363.54,30.69 3363.4,30.643 3363.4,30.474C3363.4,30.304 3363.56,30.257 3363.9,30.257C3365.2,30.257 3366.72,30.329 3367.37,30.329C3367.94,30.329 3369.46,30.257 3370.4,30.257C3370.74,30.257 3370.9,30.304 3370.9,30.474C3370.9,30.643 3370.76,30.69 3370.47,30.69C3370.28,30.69 3370.06,30.714 3369.77,30.762C3369.12,30.882 3368.93,31.292 3368.88,32.134C3368.83,32.904 3368.83,33.578 3368.83,37.234L3368.83,37.74C3368.83,37.86 3368.91,37.909 3368.98,37.909L3378.17,37.909C3378.24,37.909 3378.31,37.86 3378.31,37.74L3378.31,37.234C3378.31,33.578 3378.31,32.904 3378.26,32.134C3378.22,31.315 3378.02,30.931 3377.23,30.762C3377.04,30.714 3376.63,30.69 3376.29,30.69C3376.03,30.69 3375.88,30.643 3375.88,30.474C3375.88,30.304 3376.05,30.257 3376.39,30.257C3377.69,30.257 3379.2,30.329 3379.85,30.329C3380.43,30.329 3381.95,30.257 3382.88,30.257C3383.22,30.257 3383.39,30.304 3383.39,30.474C3383.39,30.643 3383.24,30.69 3382.96,30.69C3382.76,30.69 3382.55,30.714 3382.26,30.762C3381.61,30.882 3381.42,31.292 3381.37,32.134C3381.32,32.904 3381.32,33.578 3381.32,37.234L3381.32,41.469C3381.32,43.683 3381.32,45.584 3381.44,46.618C3381.51,47.292 3381.66,47.82 3382.38,47.917C3382.72,47.966 3383.24,48.013 3383.61,48.013C3383.87,48.013 3383.99,48.086 3383.99,48.206C3383.99,48.375 3383.8,48.446 3383.51,48.446C3381.95,48.446 3380.43,48.375 3379.76,48.375C3379.2,48.375 3377.69,48.446 3376.75,48.446C3376.41,48.446 3376.24,48.375 3376.24,48.206C3376.24,48.086 3376.34,48.013 3376.63,48.013C3376.99,48.013 3377.28,47.966 3377.49,47.917C3377.98,47.82 3378.1,47.292 3378.19,46.594C3378.31,45.584 3378.31,43.683 3378.31,41.469L3378.31,39.351C3378.31,39.255 3378.24,39.207 3378.17,39.207L3368.98,39.207C3368.91,39.207 3368.83,39.231 3368.83,39.351L3368.83,41.469C3368.83,43.683 3368.83,45.584 3368.95,46.618C3369.03,47.292 3369.17,47.82 3369.89,47.917C3370.23,47.966 3370.76,48.013 3371.12,48.013C3371.38,48.013 3371.5,48.086 3371.5,48.206C3371.5,48.375 3371.31,48.446 3371.02,48.446C3369.46,48.446 3367.94,48.375 3367.27,48.375C3366.72,48.375 3365.2,48.446 3364.24,48.446C3364.15,48.446 3364.07,48.44 3364,48.427C3363.93,48.44 3363.85,48.446 3363.76,48.446ZM3328.51,41.469C3328.51,43.778 3328.51,45.584 3328.62,46.594C3328.7,47.292 3328.84,47.82 3329.56,47.917C3329.9,47.966 3330.43,48.013 3330.77,48.013C3331.08,48.013 3331.18,48.086 3331.18,48.206C3331.18,48.375 3331.01,48.446 3330.65,48.446C3329.13,48.446 3327.62,48.375 3326.99,48.375C3326.36,48.375 3324.85,48.446 3323.93,48.446C3323.6,48.446 3323.43,48.398 3323.43,48.206C3323.43,48.086 3323.53,48.013 3323.79,48.013C3324.15,48.013 3324.44,47.966 3324.66,47.917C3325.14,47.82 3325.26,47.292 3325.35,46.594C3325.47,45.584 3325.47,43.778 3325.47,41.469L3325.47,37.234C3325.47,33.578 3325.47,32.904 3325.43,32.134C3325.38,31.315 3325.18,30.931 3324.39,30.762C3324.2,30.714 3323.79,30.69 3323.45,30.69C3323.21,30.69 3323.04,30.643 3323.04,30.498C3323.04,30.304 3323.24,30.257 3323.6,30.257C3324.22,30.257 3324.92,30.281 3325.55,30.281C3326.17,30.304 3326.72,30.329 3327.06,30.329C3327.98,30.329 3332.86,30.329 3333.41,30.304C3333.87,30.281 3334.16,30.281 3334.4,30.209C3334.54,30.16 3334.66,30.064 3334.78,30.064C3334.88,30.064 3334.95,30.16 3334.95,30.281C3334.95,30.449 3334.83,30.738 3334.76,31.364C3334.74,31.604 3334.69,33.024 3334.64,33.312C3334.62,33.504 3334.57,33.649 3334.4,33.649C3334.23,33.649 3334.18,33.529 3334.16,33.264C3334.16,33.072 3334.16,32.687 3334.02,32.351C3333.85,32.013 3333.34,31.653 3332.43,31.629L3328.72,31.556C3328.58,31.556 3328.51,31.629 3328.51,31.893L3328.51,37.909C3328.51,38.053 3328.53,38.125 3328.67,38.125L3331.75,38.101C3332.16,38.101 3332.5,38.101 3332.84,38.076C3333.29,38.053 3333.63,37.956 3333.87,37.643C3333.99,37.499 3334.04,37.403 3334.18,37.403C3334.28,37.403 3334.33,37.476 3334.33,37.62C3334.33,37.764 3334.21,38.365 3334.14,39.111C3334.09,39.592 3334.04,40.698 3334.04,40.868C3334.04,41.084 3334.04,41.325 3333.8,41.325C3333.65,41.325 3333.61,41.156 3333.61,40.987C3333.61,40.819 3333.56,40.53 3333.46,40.242C3333.34,39.905 3332.98,39.472 3332.24,39.376C3331.63,39.303 3329.08,39.303 3328.67,39.303C3328.55,39.303 3328.51,39.351 3328.51,39.52L3328.51,41.469ZM3454.45,37.234C3454.45,33.578 3454.45,32.904 3454.4,32.134C3454.35,31.315 3454.11,30.906 3453.58,30.787C3453.32,30.714 3453,30.69 3452.72,30.69C3452.47,30.69 3452.33,30.643 3452.33,30.449C3452.33,30.304 3452.52,30.257 3452.91,30.257C3453.82,30.257 3455.34,30.329 3456.03,30.329C3456.64,30.329 3458.06,30.257 3458.97,30.257C3459.28,30.257 3459.48,30.304 3459.48,30.449C3459.48,30.643 3459.33,30.69 3459.09,30.69C3458.85,30.69 3458.66,30.714 3458.37,30.762C3457.72,30.882 3457.53,31.292 3457.48,32.134C3457.43,32.904 3457.43,33.578 3457.43,37.234L3457.43,41.469C3457.43,43.803 3457.43,45.703 3457.53,46.738C3457.6,47.388 3457.77,47.82 3458.49,47.917C3458.83,47.966 3459.36,48.013 3459.72,48.013C3459.98,48.013 3460.1,48.086 3460.1,48.206C3460.1,48.375 3459.91,48.446 3459.64,48.446C3458.06,48.446 3456.54,48.375 3455.89,48.375C3455.34,48.375 3453.82,48.446 3452.86,48.446C3452.55,48.446 3452.38,48.375 3452.38,48.206C3452.38,48.086 3452.47,48.013 3452.76,48.013C3453.12,48.013 3453.41,47.966 3453.63,47.917C3454.11,47.82 3454.26,47.411 3454.33,46.714C3454.45,45.703 3454.45,43.803 3454.45,41.469L3454.45,37.234ZM3147.35,30.888C3147.35,25.221 3147.35,24.177 3147.28,22.984C3147.2,21.717 3146.9,21.12 3145.67,20.86C3145.38,20.784 3144.74,20.748 3144.22,20.748C3143.81,20.748 3143.59,20.673 3143.59,20.412C3143.59,20.151 3143.85,20.077 3144.41,20.077C3145.41,20.077 3146.49,20.113 3147.43,20.113C3148.4,20.151 3149.25,20.189 3149.78,20.189C3150.97,20.189 3158.39,20.189 3159.1,20.151C3159.81,20.077 3160.4,20.002 3160.7,19.927C3160.89,19.89 3161.11,19.778 3161.3,19.778C3161.48,19.778 3161.52,19.927 3161.52,20.113C3161.52,20.375 3161.33,20.823 3161.22,22.537C3161.18,22.91 3161.11,24.551 3161.03,24.998C3161,25.184 3160.92,25.408 3160.66,25.408C3160.4,25.408 3160.33,25.221 3160.33,24.886C3160.33,24.625 3160.29,23.991 3160.1,23.543C3159.84,22.873 3159.47,22.425 3157.61,22.202C3156.97,22.127 3153.06,22.053 3152.31,22.053C3152.12,22.053 3152.05,22.164 3152.05,22.425L3152.05,31.858C3152.05,32.118 3152.09,32.268 3152.31,32.268C3153.13,32.268 3157.42,32.268 3158.28,32.193C3159.17,32.118 3159.73,32.006 3160.07,31.634C3160.33,31.335 3160.48,31.149 3160.66,31.149C3160.81,31.149 3160.92,31.224 3160.92,31.448C3160.92,31.671 3160.77,32.268 3160.63,34.168C3160.59,34.914 3160.48,36.406 3160.48,36.667C3160.48,36.965 3160.48,37.376 3160.14,37.376C3159.88,37.376 3159.81,37.226 3159.81,37.039C3159.77,36.667 3159.77,36.182 3159.66,35.697C3159.47,34.952 3158.95,34.393 3157.57,34.244C3156.86,34.168 3153.17,34.132 3152.27,34.132C3152.09,34.132 3152.05,34.281 3152.05,34.505L3152.05,37.45C3152.05,38.718 3152.01,42.148 3152.05,43.229C3152.12,45.801 3152.72,46.359 3156.52,46.359C3157.49,46.359 3159.06,46.359 3160.03,45.912C3161,45.465 3161.44,44.682 3161.71,43.153C3161.78,42.744 3161.86,42.595 3162.12,42.595C3162.41,42.595 3162.41,42.894 3162.41,43.266C3162.41,44.124 3162.12,46.657 3161.93,47.404C3161.67,48.372 3161.33,48.372 3159.92,48.372C3157.12,48.372 3155.07,48.299 3153.47,48.262C3151.86,48.186 3150.71,48.15 3149.59,48.15C3149.18,48.15 3148.36,48.15 3147.46,48.186C3146.61,48.186 3145.64,48.262 3144.89,48.262C3144.41,48.262 3144.14,48.15 3144.14,47.888C3144.14,47.701 3144.3,47.59 3144.74,47.59C3145.3,47.59 3145.75,47.516 3146.09,47.441C3146.83,47.292 3147.02,46.472 3147.16,45.392C3147.35,43.825 3147.35,40.88 3147.35,37.45L3147.35,30.888ZM3195.38,48.262L3191.84,48.262C3189.75,48.262 3188.82,48.075 3187.85,47.553C3186.25,46.695 3184.83,44.942 3182.74,42.073C3181.25,40.023 3179.54,37.487 3179.05,36.927C3178.87,36.704 3178.64,36.667 3178.38,36.667L3175.14,36.592C3174.95,36.592 3174.84,36.667 3174.84,36.891L3174.84,37.412C3174.84,40.88 3174.84,43.825 3175.03,45.392C3175.14,46.472 3175.36,47.292 3176.48,47.441C3177.04,47.516 3177.86,47.59 3178.31,47.59C3178.61,47.59 3178.75,47.701 3178.75,47.888C3178.75,48.15 3178.49,48.262 3178.01,48.262C3175.85,48.262 3173.09,48.15 3172.53,48.15C3171.82,48.15 3169.47,48.262 3167.98,48.262C3167.49,48.262 3167.23,48.15 3167.23,47.888C3167.23,47.701 3167.38,47.59 3167.83,47.59C3168.39,47.59 3168.84,47.516 3169.17,47.441C3169.92,47.292 3170.11,46.472 3170.26,45.392C3170.44,43.825 3170.44,40.88 3170.44,37.45L3170.44,30.888C3170.44,25.221 3170.44,24.177 3170.37,22.984C3170.29,21.717 3169.99,21.12 3168.76,20.86C3168.47,20.784 3167.83,20.748 3167.31,20.748C3166.9,20.748 3166.68,20.673 3166.68,20.412C3166.68,20.151 3166.94,20.077 3167.49,20.077C3169.47,20.077 3171.82,20.189 3172.6,20.189C3173.87,20.189 3176.7,20.077 3177.86,20.077C3180.21,20.077 3182.71,20.301 3184.72,21.68C3185.76,22.388 3187.26,24.29 3187.26,26.787C3187.26,29.546 3186.1,32.082 3182.33,35.138C3185.65,39.314 3188.22,42.632 3190.42,44.942C3192.51,47.106 3194.04,47.366 3194.6,47.478C3195.01,47.553 3195.34,47.59 3195.64,47.59C3195.94,47.59 3196.09,47.701 3196.09,47.888C3196.09,48.186 3195.83,48.262 3195.38,48.262ZM3101.91,30.888C3101.91,25.221 3101.91,24.177 3101.83,22.984C3101.76,21.717 3101.39,21.083 3100.57,20.896C3100.16,20.784 3099.67,20.748 3099.22,20.748C3098.85,20.748 3098.63,20.673 3098.63,20.375C3098.63,20.151 3098.93,20.077 3099.52,20.077C3100.94,20.077 3103.29,20.189 3104.37,20.189C3105.3,20.189 3107.5,20.077 3108.92,20.077C3109.4,20.077 3109.7,20.151 3109.7,20.375C3109.7,20.673 3109.48,20.748 3109.1,20.748C3108.73,20.748 3108.43,20.784 3107.99,20.86C3106.98,21.046 3106.68,21.68 3106.61,22.984C3106.53,24.177 3106.53,25.221 3106.53,30.888L3106.53,37.45C3106.53,41.066 3106.53,44.012 3106.68,45.614C3106.79,46.622 3107.05,47.292 3108.17,47.441C3108.69,47.516 3109.51,47.59 3110.07,47.59C3110.48,47.59 3110.67,47.701 3110.67,47.888C3110.67,48.15 3110.37,48.262 3109.96,48.262C3107.5,48.262 3105.15,48.15 3104.14,48.15C3103.29,48.15 3100.94,48.262 3099.45,48.262C3098.96,48.262 3098.7,48.15 3098.7,47.888C3098.7,47.701 3098.85,47.59 3099.3,47.59C3099.86,47.59 3100.3,47.516 3100.64,47.441C3101.39,47.292 3101.61,46.657 3101.72,45.577C3101.91,44.012 3101.91,41.066 3101.91,37.45L3101.91,30.888ZM3220.36,30.888C3220.36,25.221 3220.36,24.177 3220.28,22.984C3220.21,21.717 3219.84,21.083 3219.01,20.896C3218.61,20.784 3218.12,20.748 3217.67,20.748C3217.3,20.748 3217.08,20.673 3217.08,20.375C3217.08,20.151 3217.38,20.077 3217.97,20.077C3219.39,20.077 3221.74,20.189 3222.82,20.189C3223.75,20.189 3225.95,20.077 3227.37,20.077C3227.85,20.077 3228.15,20.151 3228.15,20.375C3228.15,20.673 3227.92,20.748 3227.55,20.748C3227.18,20.748 3226.88,20.784 3226.43,20.86C3225.43,21.046 3225.13,21.68 3225.06,22.984C3224.98,24.177 3224.98,25.221 3224.98,30.888L3224.98,37.45C3224.98,41.066 3224.98,44.012 3225.13,45.614C3225.24,46.622 3225.5,47.292 3226.62,47.441C3227.14,47.516 3227.96,47.59 3228.52,47.59C3228.93,47.59 3229.12,47.701 3229.12,47.888C3229.12,48.15 3228.82,48.262 3228.41,48.262C3225.95,48.262 3223.6,48.15 3222.59,48.15C3221.74,48.15 3219.39,48.262 3217.9,48.262C3217.41,48.262 3217.15,48.15 3217.15,47.888C3217.15,47.701 3217.3,47.59 3217.75,47.59C3218.31,47.59 3218.75,47.516 3219.09,47.441C3219.84,47.292 3220.06,46.657 3220.17,45.577C3220.36,44.012 3220.36,41.066 3220.36,37.45L3220.36,30.888ZM3242.16,22.164L3236.61,22.313C3234.45,22.388 3233.55,22.575 3232.99,23.395C3232.62,23.954 3232.43,24.402 3232.36,24.699C3232.29,24.998 3232.17,25.147 3231.95,25.147C3231.69,25.147 3231.62,24.961 3231.62,24.551C3231.62,23.954 3232.32,20.561 3232.4,20.263C3232.51,19.778 3232.62,19.555 3232.85,19.555C3233.14,19.555 3233.52,19.927 3234.45,20.002C3235.53,20.113 3236.95,20.189 3238.18,20.189L3252.94,20.189C3254.13,20.189 3254.95,20.077 3255.51,20.002C3256.07,19.89 3256.37,19.816 3256.52,19.816C3256.78,19.816 3256.82,20.04 3256.82,20.598C3256.82,21.381 3256.71,23.954 3256.71,24.923C3256.67,25.296 3256.59,25.52 3256.37,25.52C3256.07,25.52 3256,25.334 3255.96,24.773L3255.92,24.364C3255.85,23.395 3254.84,22.352 3251.52,22.276L3246.83,22.164L3246.83,37.45C3246.83,40.88 3246.83,43.825 3247.01,45.427C3247.12,46.472 3247.35,47.292 3248.47,47.441C3248.99,47.516 3249.81,47.59 3250.37,47.59C3250.78,47.59 3250.96,47.701 3250.96,47.888C3250.96,48.15 3250.67,48.262 3250.26,48.262C3247.8,48.262 3245.45,48.15 3244.4,48.15C3243.55,48.15 3241.2,48.262 3239.71,48.262C3239.22,48.262 3238.96,48.15 3238.96,47.888C3238.96,47.701 3239.11,47.59 3239.56,47.59C3240.12,47.59 3240.56,47.516 3240.9,47.441C3241.64,47.292 3241.87,46.472 3241.98,45.392C3242.16,43.825 3242.16,40.88 3242.16,37.45L3242.16,22.164ZM3269.16,38.606C3269.16,36.592 3268.78,35.771 3268.3,34.691C3268.04,34.095 3263.04,25.893 3261.74,23.954C3260.81,22.575 3259.87,21.642 3259.17,21.232C3258.68,20.972 3258.05,20.748 3257.6,20.748C3257.3,20.748 3257.04,20.673 3257.04,20.412C3257.04,20.189 3257.3,20.077 3257.75,20.077C3258.42,20.077 3261.21,20.189 3262.45,20.189C3263.23,20.189 3264.76,20.077 3266.43,20.077C3266.81,20.077 3266.99,20.189 3266.99,20.412C3266.99,20.637 3266.73,20.673 3266.17,20.823C3265.84,20.896 3265.65,21.195 3265.65,21.493C3265.65,21.792 3265.84,22.239 3266.1,22.761C3266.62,23.881 3271.84,32.864 3272.44,33.908C3272.81,33.014 3277.51,24.811 3278.03,23.655C3278.4,22.835 3278.55,22.202 3278.55,21.717C3278.55,21.345 3278.4,20.934 3277.77,20.784C3277.43,20.711 3277.1,20.637 3277.1,20.412C3277.1,20.151 3277.28,20.077 3277.73,20.077C3278.96,20.077 3280.15,20.189 3281.24,20.189C3282.06,20.189 3284.52,20.077 3285.22,20.077C3285.63,20.077 3285.89,20.151 3285.89,20.375C3285.89,20.637 3285.6,20.748 3285.19,20.748C3284.82,20.748 3284.11,20.896 3283.55,21.195C3282.76,21.567 3282.35,22.015 3281.53,23.022C3280.3,24.513 3275.09,33.274 3274.41,34.877C3273.85,36.22 3273.85,37.376 3273.85,38.606L3273.85,41.663C3273.85,42.259 3273.85,43.825 3273.96,45.392C3274.04,46.472 3274.38,47.292 3275.49,47.441C3276.01,47.516 3276.84,47.59 3277.36,47.59C3277.77,47.59 3277.95,47.701 3277.95,47.888C3277.95,48.15 3277.66,48.262 3277.17,48.262C3274.82,48.262 3272.47,48.15 3271.47,48.15C3270.53,48.15 3268.19,48.262 3266.81,48.262C3266.28,48.262 3265.99,48.186 3265.99,47.888C3265.99,47.701 3266.17,47.59 3266.58,47.59C3267.11,47.59 3267.55,47.516 3267.89,47.441C3268.63,47.292 3268.97,46.472 3269.04,45.392C3269.16,43.825 3269.16,42.259 3269.16,41.663L3269.16,38.606ZM3317.07,39.809C3317.07,34.42 3313.97,31.075 3310.03,31.075C3307.26,31.075 3304.11,32.614 3304.11,38.606C3304.11,43.611 3306.87,47.58 3311.49,47.58C3313.18,47.58 3317.07,46.762 3317.07,39.809ZM3401.89,39.809C3401.89,34.42 3398.79,31.075 3394.84,31.075C3392.08,31.075 3388.93,32.614 3388.93,38.606C3388.93,43.611 3391.69,47.58 3396.31,47.58C3398,47.58 3401.89,46.762 3401.89,39.809ZM3412.75,39.881C3412.75,42.431 3412.77,44.284 3412.8,44.742C3412.82,45.342 3412.87,46.305 3413.06,46.569C3413.37,47.027 3414.31,47.533 3416.21,47.533C3418.67,47.533 3420.3,47.051 3421.75,45.8C3423.29,44.476 3423.77,42.287 3423.77,39.809C3423.77,36.753 3422.49,34.779 3421.46,33.793C3419.24,31.677 3416.5,31.388 3414.62,31.388C3414.14,31.388 3413.25,31.46 3413.06,31.556C3412.84,31.653 3412.77,31.773 3412.77,32.037C3412.75,32.856 3412.75,34.948 3412.75,36.85L3412.75,39.881ZM3535.95,39.881C3535.95,42.431 3535.97,44.284 3535.99,44.742C3536.02,45.342 3536.07,46.305 3536.26,46.569C3536.57,47.027 3537.51,47.533 3539.41,47.533C3541.87,47.533 3543.5,47.051 3544.95,45.8C3546.49,44.476 3546.97,42.287 3546.97,39.809C3546.97,36.753 3545.69,34.779 3544.66,33.793C3542.44,31.677 3539.7,31.388 3537.82,31.388C3537.34,31.388 3536.45,31.46 3536.26,31.556C3536.04,31.653 3535.97,31.773 3535.97,32.037C3535.95,32.856 3535.95,34.948 3535.95,36.85L3535.95,39.881ZM3499.9,40.964C3500.02,40.964 3500.05,40.892 3500.02,40.819L3497.86,34.877C3497.83,34.779 3497.81,34.66 3497.74,34.66C3497.66,34.66 3497.61,34.779 3497.59,34.877L3495.38,40.795C3495.35,40.892 3495.38,40.964 3495.47,40.964L3499.9,40.964ZM3350.5,39.136C3350.5,39.4 3350.55,39.495 3350.71,39.568C3351.22,39.737 3351.94,39.809 3352.54,39.809C3353.51,39.809 3353.82,39.712 3354.25,39.4C3354.97,38.87 3355.67,37.764 3355.67,35.79C3355.67,32.374 3353.41,31.388 3351.99,31.388C3351.39,31.388 3350.95,31.412 3350.71,31.484C3350.55,31.532 3350.5,31.629 3350.5,31.821L3350.5,39.136ZM3174.84,33.833C3174.84,34.244 3174.91,34.393 3175.18,34.505C3175.96,34.765 3177.08,34.877 3178.01,34.877C3179.5,34.877 3179.98,34.728 3180.66,34.244C3181.77,33.423 3182.85,31.709 3182.85,28.652C3182.85,23.358 3179.35,21.829 3177.15,21.829C3176.22,21.829 3175.55,21.866 3175.18,21.978C3174.91,22.053 3174.84,22.202 3174.84,22.5L3174.84,33.833Z" style="fill:white;"/>
        </g>
    </g>
</svg>
